HIERARCHY
ROOT Hips
{
	OFFSET	0	0	0
	CHANNELS 6  Xposition Yposition Zposition Xrotation Yrotation Zrotation
	JOINT Spine
	{
		OFFSET	0	6.81137	1.36784
		CHANNELS 3  Xrotation Yrotation Zrotation
		JOINT Spine1
		{
			OFFSET	0	11.6648	-2.083
			CHANNELS 3  Xrotation Yrotation Zrotation
			JOINT Spine2
			{
				OFFSET	0	8.84235	0.947767
				CHANNELS 3  Xrotation Yrotation Zrotation
				JOINT Spine3
				{
					OFFSET	0	10.5817	3.14534
					CHANNELS 3  Xrotation Yrotation Zrotation
					JOINT Spine4
					{
						OFFSET	0	15.6642	-1.60391
						CHANNELS 3  Xrotation Yrotation Zrotation
						JOINT Neck
						{
							OFFSET	0	7.47798	-5.23875
							CHANNELS 3  Xrotation Yrotation Zrotation
							JOINT Head
							{
								OFFSET	0	8.97775	-2.68707
								CHANNELS 3  Xrotation Yrotation Zrotation
								End Site
								{
									OFFSET	0	18.7262	-0.906107
								}
							}
						}
					}
					JOINT LeftShoulder
					{
						OFFSET	-4.49929	19.0387	-8.97775
						CHANNELS 3  Xrotation Yrotation Zrotation
						JOINT LeftArm
						{
							OFFSET	-9.81417	-2.68707	3.44739
							CHANNELS 3  Xrotation Yrotation Zrotation
							JOINT LeftForeArm
							{
								OFFSET	-33.0157	-1.50689	2.35663
								CHANNELS 3  Xrotation Yrotation Zrotation
								JOINT LeftHand
								{
									OFFSET	-25.9733	-1.7949	1.85395
									CHANNELS 3  Xrotation Yrotation Zrotation
									End Site
									{
										OFFSET	-9.47896	-0.655051	0.676554
									}
								}
							}
						}
					}
					JOINT RightShoulder
					{
						OFFSET	4.49929	19.0387	-8.97775
						CHANNELS 3  Xrotation Yrotation Zrotation
						JOINT RightArm
						{
							OFFSET	9.81417	-2.68707	3.44739
							CHANNELS 3  Xrotation Yrotation Zrotation
							JOINT RightForeArm
							{
								OFFSET	33.0157	-1.50689	2.35663
								CHANNELS 3  Xrotation Yrotation Zrotation
								JOINT RightHand
								{
									OFFSET	25.9733	-1.7949	1.85395
									CHANNELS 3  Xrotation Yrotation Zrotation
									End Site
									{
										OFFSET	9.47896	-0.655051	0.676554
									}
								}
							}
						}
					}
				}
			}
		}
	}
	JOINT LeftUpLeg
	{
		OFFSET	-9.2746	-3.40568	-0.68392
		CHANNELS 3  Xrotation Yrotation Zrotation
		JOINT LeftLeg
		{
			OFFSET	-2.10167	-41.1814	-0.643755
			CHANNELS 3  Xrotation Yrotation Zrotation
			JOINT LeftFoot
			{
				OFFSET	-2.05436	-37.8685	3.25669
				CHANNELS 3  Xrotation Yrotation Zrotation
				JOINT LeftToeBase
				{
					OFFSET	0	-4.68304	-12.4382
					CHANNELS 3  Xrotation Yrotation Zrotation
					End Site
					{
						OFFSET	0	-1.87322	-7.49286
					}
				}
			}
		}
	}
	JOINT RightUpLeg
	{
		OFFSET	9.2746	-3.40568	-0.68392
		CHANNELS 3  Xrotation Yrotation Zrotation
		JOINT RightLeg
		{
			OFFSET	2.10167	-41.1814	-0.643755
			CHANNELS 3  Xrotation Yrotation Zrotation
			JOINT RightFoot
			{
				OFFSET	2.05436	-37.8685	3.25669
				CHANNELS 3  Xrotation Yrotation Zrotation
				JOINT RightToeBase
				{
					OFFSET	0	-4.68304	-12.4382
					CHANNELS 3  Xrotation Yrotation Zrotation
					End Site
					{
						OFFSET	0	-1.87322	-7.49286
					}
				}
			}
		}
	}
}
MOTION
Frames: 8
Frame Time: 0.020408
 -76.8022 84.5236 -288.496 50.6854 -120.933 49.8046 0.000104489 0.00241583 -2.4766 13.7268 0.00482364 -4.12767 14.4733 0.0144709 -4.12767 11.3883 0.00241583 -2.4766 179.355 179.991 179.175 165.234 -172.079 -175.001 175.294 -161.941 179.166 1.4756 -28.6269 3.20558 155.2 -88.9269 -159.725 13.6369 -6.66917 -0.306151 -0 42.4035 21.5463 0.0441586 -16.2594 -0.0693742 146.857 162.027 118.923 148.945 163.038 -168.402 -0 47.4717 -0.46025 53.6351 -16.0104 -4.18495 159.778 172.172 179.966 163.814 -179.99 168.568 179.425 180 -180 32.9399 18.1655 -18.0455 147.35 -165.388 -179.83 23.6222 -0.0887702 11.4908 5.3402 0 0
 -78.4133 84.2866 -288.484 52.5196 -121.101 51.9012 0.000238064 0.00556286 -2.45049 13.727 0.0111076 -4.08415 14.4815 0.0333229 -4.08415 11.4098 0.00556286 -2.45049 179.305 179.99 179.183 165.088 -172.166 -175.246 175.257 -162.264 179.133 1.38913 -28.4645 3.01779 163.847 -89.4401 -153.903 13.1909 -6.44572 -0.120331 -0 42.0161 21.0022 0.925148 -15.706 -1.46713 145.232 160.271 119.828 150.064 163.989 -169.146 -0 46.8457 -0.840681 54.6852 -16.6517 -4.56907 160.234 172.485 -179.728 162.334 -179.962 168.547 179.417 180 -180 33.6508 18.7274 -18.5384 147.021 -165.003 -179.949 23.9887 -0.0552629 11.5033 5.33969 0 0
 -78.6553 84.3081 -288.103 47.2438 -121.589 45.6691 180 -179.997 177.683 13.702 -0.00602552 -3.86156 14.3937 -0.0180766 -3.86155 11.2123 -0.00301715 -2.31693 179.72 179.996 179.228 166.3 -172.42 -175.411 175.649 -162.753 179.221 1.61873 -28.6832 3.51673 138.725 -89.1036 179.769 13.0561 -7.59146 -0.285195 -0 41.3209 20.6094 1.27726 -15.3196 -2.03874 145.852 157.987 119.622 150.954 165.024 -169.922 -0 45.9231 -1.34561 55.9362 -17.9609 -5.06295 159.818 172.27 179.259 158.396 -179.924 168.528 179.404 180 -180 34.7365 18.5123 -20.5852 146.972 -163.408 179.901 25.5043 0.0025952 11.5028 5.33267 0 0
 -78.6225 85.0784 -287.771 47.1776 -121.52 45.7397 6.91094e-05 0.00169621 -2.33313 13.6535 0.00338742 -3.88856 14.3521 0.0101623 -3.88856 11.1968 0.00169621 -2.33313 179.664 179.995 179.222 166.166 -172.705 -174.936 175.619 -163.006 179.371 1.13542 -28.812 2.46599 158.019 -135.387 -140.371 143.634 -149.755 158.174 -0 -0.315878 -0.539619 1.41068 -15.2163 -2.25568 147.719 155.611 118.59 151.859 165.889 -170.758 -0 44.7158 -1.69004 56.8682 -18.7211 -5.09991 158.851 171.705 179.477 156.972 -179.963 168.54 179.391 180 -180 34.8501 18.1922 -21.8892 146.121 -162.621 -179.802 27.1498 -0.0110592 11.5444 5.32556 0 0
 -79.9201 84.8878 -287.839 48.9226 -122.452 47.7531 180 -179.999 177.673 13.6847 -0.00118745 -3.87905 14.3313 -0.00356234 -3.87905 11.0635 -0.000594596 -2.32743 0.0343126 -0.000464636 -0.77581 167.207 -172.771 -175.376 175.949 -163.326 179.352 1.29286 -28.5616 2.80841 158.419 -135.89 -141.317 143.919 -150.55 158.033 -0 -0.162794 -0.676068 1.31908 -14.885 -2.12025 150.098 153.392 117.415 152.737 165.965 -171.133 -0 43.8925 -1.80158 57.1093 -19.125 -5.36626 158.488 171.252 179.977 157.736 -179.925 168.537 179.377 180 -180 35.0918 18.25 -23.1853 146.202 -161.604 -179.572 27.4578 -0.0421933 11.496 5.31842 0 0
 -80.196 84.7668 -287.47 48.9974 -122.175 48.1518 8.16778e-05 0.00202844 -2.30584 13.685 0.00405105 -3.84306 14.3293 0.0121531 -3.84307 11.0546 0.00202844 -2.30584 0.0551693 -0.000740131 -0.768613 167.273 -172.793 -176.01 175.977 -163.781 179.239 1.35202 -28.5265 2.93705 159.477 -136.553 -142.634 143.861 -150.465 158.088 -0 -0.0389303 -1.32213 0.953683 -14.6624 -1.53796 151.19 151.916 116.619 153.43 166.596 -171.661 -0 43.0599 -2.08453 56.5096 -19.2716 -5.79452 158.229 170.735 -179.847 157.948 -179.933 168.54 179.364 180 -180 35.6595 18.2497 -24.3707 146.305 -160.333 -179.262 29.0912 -0.0642612 11.5219 5.31287 0 0
 -80.5658 84.8214 -287.274 49.9862 -121.666 49.5148 180 -179.995 177.704 13.6947 -0.00985599 -3.82625 14.3528 -0.029568 -3.82625 11.1083 -0.00493504 -2.29575 179.949 179.999 179.235 166.958 -172.847 -176.65 175.89 -164.314 179.115 1.42998 -28.4813 3.10657 160.859 -136.993 -143.294 143.748 -150.201 157.863 -0 -0.111361 -2.24415 0.694947 -14.7679 -1.1187 151.899 150.755 115.937 153.852 167.655 -172.196 -0 41.8911 -2.55912 55.9533 -18.9049 -5.98354 158.1 170.015 -179.697 157.66 -179.977 168.544 179.346 180 -180 36.4418 19.1845 -25.3841 146.823 -158.626 -178.943 29.0167 -0.0695124 11.5317 5.29999 0 0
 -80.3291 84.7787 -287.065 49.9693 -121.039 49.8951 180 -180 177.71 13.5449 -0.000772996 -3.81662 14.2267 -0.00231899 -3.81662 11.0755 -0.000387048 -2.28997 179.742 179.997 179.237 166.506 -172.9 -177.395 175.762 -164.901 178.964 1.53889 -28.5529 3.34328 162.48 -136.926 -143.935 143.567 -149.889 157.621 -0 -0.38154 -3.13023 0.263914 -14.4597 -0.42685 152.25 149.605 115.07 154.039 168.555 -172.758 -0 40.5747 -3.28376 55.7285 -18.5848 -6.53632 159.94 169.271 179.988 156.967 -179.989 168.537 179.329 180 -180 37.9874 20.7821 -26.6655 147.253 -156.674 -178.825 28.0012 -0.0405405 11.5354 5.28407 0 0
